<svg xmlns="http://www.w3.org/2000/svg" version="1.0" width="800" height="1040"><path style="opacity:1;fill:#FFB9E5;fill-opacity:1;fill-rule:nonzero;stroke:#1A202C;stroke-width:38.95716476;stroke-linecap:square;stroke-linejoin:miter;stroke-miterlimit:4;stroke-dasharray:none;stroke-opacity:1" d="M30.962 28.068H772.7v982.624H30.962z"/><path style="opacity:1;fill:#1A202C;fill-opacity:1;fill-rule:nonzero;stroke:none;stroke-width:2;stroke-linecap:square;stroke-linejoin:round;stroke-miterlimit:4;stroke-dasharray:none;stroke-opacity:1" d="M67.93 61.458h667.803v915.844H67.93z"/><path d="M379.245 272.246V522.23c1.754 0 4.24.146 7.456.438 3.216.293 5.555.44 7.017.439 11.695 0 19.662-2.046 23.902-6.14 4.24-4.093 6.359-11.695 6.36-22.806V311.716c-.001-18.126-2.048-29.237-6.14-33.33-4.094-4.093-12.427-6.14-25-6.14h-13.595zM224.868 884.05V154.71h175.867c76.603 0 125.43 8.699 146.482 26.095 21.051 17.397 31.577 58.988 31.578 124.773v182.445c0 66.37-10.6 108.254-31.797 125.65-21.198 17.397-69.66 26.096-145.386 26.096h-22.367V884.05H224.868z" style="font-size:898.19207764px;font-style:normal;font-variant:normal;font-weight:400;font-stretch:normal;text-align:start;line-height:100%;writing-mode:lr-tb;text-anchor:start;fill:#fff;fill-opacity:1;stroke:none;stroke-width:1px;stroke-linecap:butt;stroke-linejoin:miter;stroke-opacity:1;font-family:Compacta Bd BT;-inkscape-font-specification:Compacta Bd BT"/></svg>